<svg width="24" height="24" viewBox="0 0 24 24" fill="none" xmlns="http://www.w3.org/2000/svg">
<path d="M1.99963 3.00012C1.99963 2.44784 2.44735 2.00012 2.99963 2.00012C3.55192 2.00012 3.99963 2.44784 3.99963 3.00012V14.0001H1.99963V3.00012Z" fill="white"/>
<path d="M19.9996 3.00012C19.9996 2.44784 20.4473 2.00012 20.9996 2.00012C21.5519 2.00012 21.9996 2.44784 21.9996 3.00012V14.0001H19.9996V3.00012Z" fill="white"/>
<path d="M4.99963 6.00012C4.99963 4.89555 5.89506 4.00012 6.99963 4.00012H16.9996C18.1042 4.00012 18.9996 4.89555 18.9996 6.00012V14.0001H4.99963V6.00012Z" fill="white"/>
<path fill-rule="evenodd" clip-rule="evenodd" d="M11.9788 22.0001C6.75049 21.992 2.46019 18.9195 1.99963 15.0001H21.9997C21.5392 18.9195 17.2489 21.992 12.0205 22.0001H11.9788Z" fill="white"/>
</svg>
