<svg width="24" height="24" viewBox="0 0 24 24" fill="none" xmlns="http://www.w3.org/2000/svg">
<path d="M2.00073 3.00012C2.00073 2.44784 2.44845 2.00012 3.00073 2.00012V2.00012C3.55302 2.00012 4.00073 2.44784 4.00073 3.00012V14.0001H2.00073V3.00012Z" fill="#FFCC00"/>
<path d="M20.0007 3.00012C20.0007 2.44784 20.4484 2.00012 21.0007 2.00012V2.00012C21.553 2.00012 22.0007 2.44784 22.0007 3.00012V14.0001H20.0007V3.00012Z" fill="#FFCC00"/>
<path d="M5.00073 6.00012C5.00073 4.89555 5.89616 4.00012 7.00073 4.00012H17.0007C18.1053 4.00012 19.0007 4.89555 19.0007 6.00012V14.0001H5.00073V6.00012Z" fill="#FFCC00"/>
<path fill-rule="evenodd" clip-rule="evenodd" d="M11.9801 22.0001C6.75175 21.992 2.46145 18.9195 2.00089 15.0001H22.001C21.5404 18.9195 17.2501 21.992 12.0218 22.0001H11.9801Z" fill="#FFCC00"/>
</svg>
