<svg width="30" height="23" viewBox="0 0 30 23" fill="none" xmlns="http://www.w3.org/2000/svg">
<path fill-rule="evenodd" clip-rule="evenodd" d="M30 20.3625V2.52589C30 1.18308 28.8802 0.0936279 27.5 0.0936279H2.5C1.11979 0.0936279 0 1.18308 0 2.52589V20.3625C0 21.7053 1.11979 22.7948 2.5 22.7948H27.5C28.8802 22.7948 30 21.7053 30 20.3625ZM14.5885 19.045C14.6302 18.7815 14.8021 18.6042 15.0833 18.6042C15.3542 18.6042 15.5365 18.7562 15.5833 19.045H14.5885ZM8.96354 18.6194C8.59375 18.6194 8.38021 18.8829 8.38021 19.2122C8.38021 19.5416 8.59375 19.8051 8.96354 19.8051C9.30208 19.8051 9.53125 19.5568 9.53125 19.2122C9.52604 18.8829 9.30208 18.6194 8.96354 18.6194ZM25.151 19.2122C25.151 19.5568 24.9115 19.8051 24.5677 19.8051C24.2135 19.8051 23.9844 19.5416 23.9844 19.2122C23.9844 18.8829 24.2135 18.6194 24.5677 18.6194C24.9115 18.6194 25.151 18.8829 25.151 19.2122ZM20.6979 18.6194C20.3438 18.6194 20.1302 18.8829 20.1302 19.2122C20.1302 19.5416 20.3438 19.8051 20.6979 19.8051C21.0521 19.8051 21.2812 19.5568 21.2812 19.2122C21.2812 18.8829 21.0521 18.6194 20.6979 18.6194ZM26.2194 19.96C26.2162 19.9537 26.2135 19.9482 26.2135 19.9419C26.2065 19.9305 26.2037 19.92 26.2013 19.9111C26.1984 19.9003 26.1961 19.8917 26.1875 19.8862C26.1802 19.8815 26.1729 19.8789 26.1646 19.8761C26.155 19.8728 26.1441 19.869 26.1302 19.8609C26.1146 19.8457 26.099 19.8457 26.0729 19.8457C26.0573 19.8457 26.0417 19.8457 26.0156 19.8609C26.0097 19.8647 26.0046 19.867 25.9996 19.8693C25.9914 19.8731 25.9837 19.8767 25.974 19.8862L25.9678 19.8946C25.9583 19.9073 25.9479 19.9212 25.9479 19.9419C25.9323 19.9571 25.9323 19.9723 25.9323 19.9977C25.9323 20.0129 25.9323 20.0281 25.9479 20.0534C25.9479 20.0686 25.9583 20.0787 25.974 20.0939L25.9782 20.0969L25.9831 20.1007L25.9879 20.1048C25.9969 20.1124 26.0051 20.1193 26.0156 20.1193C26.0469 20.1345 26.0573 20.1345 26.0729 20.1345C26.1042 20.1345 26.1146 20.1345 26.1302 20.1193C26.1615 20.1193 26.1719 20.1091 26.1875 20.0939C26.1914 20.0882 26.1939 20.0832 26.1962 20.0784C26.2001 20.0704 26.2038 20.0629 26.2135 20.0534C26.2135 20.0356 26.2189 20.0247 26.2233 20.0158C26.2246 20.0133 26.2257 20.0109 26.2267 20.0086C26.2277 20.0062 26.2285 20.0037 26.2289 20.0012L26.2292 19.9977C26.2292 19.9799 26.2238 19.969 26.2194 19.96ZM26.099 20.0129C26.1136 20.0129 26.12 20.008 26.1256 20.0038C26.13 20.0006 26.1338 19.9977 26.1406 19.9977C26.1562 19.9825 26.1562 19.9723 26.1562 19.9571C26.1562 19.9419 26.1562 19.9318 26.1406 19.9166C26.1342 19.9166 26.1286 19.914 26.122 19.9109C26.1128 19.9066 26.1016 19.9014 26.0833 19.9014H26V20.0787H26.0417V20.0078H26.0573L26.1146 20.0787H26.1562L26.099 20.0129ZM3.33333 9.59973C3.33333 13.4762 6.56771 16.6178 10.5469 16.6178C11.9635 16.6178 13.3542 16.2023 14.5312 15.4473C10.7344 12.4424 10.7604 6.77222 14.5312 3.76736C13.3542 3.00728 11.9635 2.59683 10.5469 2.59683C6.56771 2.59177 3.33333 5.73851 3.33333 9.59973ZM15 15.1129C18.6719 12.3259 18.6562 6.89384 15 4.09166C11.3438 6.89384 11.3281 12.331 15 15.1129ZM7.58854 18.9792C7.58854 18.5383 7.29167 18.2495 6.82292 18.2343C6.58333 18.2343 6.32812 18.3052 6.15625 18.5636C6.03125 18.3559 5.81771 18.2343 5.52083 18.2343C5.32292 18.2343 5.125 18.3052 4.96875 18.5079V18.2849H4.54167V20.1446H4.96875C4.96875 19.9885 4.96529 19.8427 4.96209 19.7078C4.94568 19.0155 4.93616 18.6143 5.4375 18.6143C5.88786 18.6143 5.88157 18.9858 5.86922 19.7163C5.867 19.8475 5.86458 19.9903 5.86458 20.1446H6.27604C6.27604 19.9945 6.27263 19.8529 6.26945 19.721C6.25299 19.0379 6.24279 18.6143 6.74479 18.6143C7.19499 18.6143 7.18887 18.9782 7.17652 19.7122L7.17652 19.7122C7.1743 19.8444 7.17188 19.9885 7.17188 20.1446H7.59896V18.9792H7.58854ZM9.51562 18.2849H9.92708V20.1497H9.51562V19.9166C9.375 20.0939 9.17708 20.1902 8.90625 20.1902C8.36979 20.1902 7.95833 19.7798 7.95833 19.2122C7.95833 18.6498 8.36979 18.2343 8.90625 18.2343C9.17708 18.2343 9.375 18.3407 9.51562 18.5079V18.2849ZM12.0365 19.5822C12.0365 19.1306 11.6154 19.0689 11.2737 19.0189C11.0402 18.9847 10.8438 18.9559 10.8438 18.8119C10.8438 18.5231 11.4635 18.5687 11.8073 18.7562L11.9792 18.4268C11.4896 18.1177 10.4062 18.1228 10.4062 18.8423C10.4062 19.2725 10.8266 19.3402 11.1682 19.3951C11.402 19.4328 11.599 19.4645 11.599 19.6024C11.599 19.9217 10.8958 19.8963 10.5208 19.643L10.3385 19.9622C10.9219 20.3473 12.0365 20.2662 12.0365 19.5822ZM13.7656 19.7088L13.8802 20.0534C13.6042 20.2308 12.7031 20.3929 12.7031 19.5011V18.6549H12.3073V18.285H12.7031V17.7174H13.1302V18.285H13.8125V18.6599H13.1302V19.5011C13.1302 19.9318 13.5677 19.8153 13.7656 19.7088ZM14.5729 19.3744H16.0052C16.0052 18.5535 15.6198 18.2292 15.099 18.2292C14.5469 18.2292 14.151 18.6295 14.151 19.2072C14.151 20.246 15.3281 20.4182 15.9115 19.9267L15.7135 19.6227C15.3073 19.947 14.6927 19.9166 14.5729 19.3744ZM16.8594 18.5079C17.0469 18.1937 17.4115 18.1836 17.651 18.2849L17.526 18.6701C17.3542 18.5839 16.8594 18.5079 16.8594 19.0957V20.1446H16.4323V18.2849H16.8594V18.5079ZM18.2031 19.2122C18.2031 18.6346 18.8073 18.4471 19.2812 18.7866L19.4792 18.4572C18.875 17.9961 17.776 18.2495 17.776 19.2173C17.776 20.2206 18.9427 20.4233 19.4792 19.9774L19.2812 19.648C18.8021 19.9774 18.2031 19.7798 18.2031 19.2122ZM21.25 18.2849H21.6771V20.1497H21.25V19.9166C20.8594 20.4639 19.6927 20.1852 19.6927 19.2122C19.6927 18.2647 20.8177 17.9505 21.25 18.5079V18.2849ZM23.4323 18.2849C23.3073 18.2241 22.8594 18.138 22.6406 18.5079V18.2849H22.2292V20.1446H22.6406V19.0957C22.6406 18.5383 23.1094 18.5738 23.3073 18.6701L23.4323 18.2849ZM25.1198 17.5299H25.5312V20.1497H25.1198V19.9166C24.7344 20.4588 23.5625 20.1953 23.5625 19.2122C23.5625 18.2495 24.6927 17.9556 25.1198 18.5079V17.5299ZM25.9271 13.7245V13.9575H25.9688V13.7245H26.0677V13.6839H25.8281V13.7245H25.9271ZM26.2552 19.9166C26.2708 19.9419 26.2708 19.9723 26.2708 19.9977C26.2708 20.0129 26.2708 20.0382 26.2552 20.0686C26.2474 20.0762 26.2409 20.0863 26.2344 20.0965L26.2344 20.0965C26.2279 20.1066 26.2213 20.1168 26.2135 20.1243C26.2057 20.132 26.1953 20.1383 26.1849 20.1446C26.1794 20.1479 26.174 20.1513 26.1689 20.1547C26.1643 20.1579 26.16 20.1613 26.1562 20.1649C26.1302 20.1801 26.099 20.1801 26.0729 20.1801C26.0573 20.1801 26.026 20.1801 26 20.1649C25.9688 20.1497 25.9583 20.1396 25.9427 20.1243C25.9167 20.1091 25.901 20.0838 25.901 20.0686C25.8854 20.0382 25.8854 20.0129 25.8854 19.9977C25.8854 19.9723 25.8854 19.9419 25.901 19.9166C25.901 19.9014 25.9167 19.8761 25.9427 19.8609C25.9583 19.8457 25.974 19.8355 26 19.8203C26.0183 19.8203 26.0348 19.8151 26.0485 19.8108C26.0582 19.8077 26.0664 19.8051 26.0729 19.8051C26.0859 19.8051 26.1003 19.8089 26.1146 19.8127C26.1289 19.8165 26.1432 19.8203 26.1562 19.8203C26.1641 19.8279 26.1745 19.8342 26.1849 19.8406L26.1849 19.8406C26.1953 19.8469 26.2057 19.8533 26.2135 19.8609C26.2214 19.8685 26.2279 19.8786 26.2344 19.8887C26.2409 19.8989 26.2474 19.909 26.2552 19.9166ZM26.4375 13.6788H26.3646L26.2812 13.8562L26.1979 13.6788H26.125V13.9525H26.1667V13.7447L26.25 13.9221H26.3073L26.3802 13.7447V13.9525H26.4375V13.6788ZM19.4531 2.59177C23.4323 2.59177 26.6667 5.73851 26.6667 9.59973C26.6667 13.4762 23.4323 16.6178 19.4531 16.6128C18.0469 16.6128 16.6458 16.2023 15.4688 15.4422C19.2812 12.4526 19.224 6.76716 15.4688 3.76229C16.6458 3.00728 18.0365 2.59177 19.4531 2.59177Z" fill="black"/>
</svg>
