<svg width="26" height="30" viewBox="0 0 26 30" fill="none" xmlns="http://www.w3.org/2000/svg">
<path fill-rule="evenodd" clip-rule="evenodd" d="M11.288 6.88647H19.7503C24.2932 6.88647 26.0039 9.12391 25.7397 12.4165C25.3042 17.8443 21.9311 20.8457 17.457 20.8457H15.1982C14.585 20.8457 14.1724 21.24 14.0056 22.3117L13.0365 28.5341C12.9736 28.9383 12.7551 29.1757 12.4267 29.2044H7.12059C6.62132 29.2044 6.44369 28.8328 6.57438 28.0279L9.81471 8.06728C9.94453 7.26736 10.3943 6.88647 11.288 6.88647Z" fill="#009DE2"/>
<path fill-rule="evenodd" clip-rule="evenodd" d="M5.99761 0.0172577H14.4683C16.8541 0.0172577 19.6836 0.0926093 21.5765 1.7168C22.841 2.80181 23.5046 4.53044 23.3513 6.38622C22.8319 12.6791 18.9629 16.2037 13.7747 16.2037H9.59696C8.8859 16.2037 8.41456 16.6621 8.21401 17.9037L7.04821 25.1189C6.97261 25.587 6.76403 25.8628 6.38327 25.8961H1.16527C0.586258 25.8961 0.380402 25.4652 0.531915 24.5319L4.28931 1.38645C4.43988 0.458909 4.96136 0.0172577 5.99761 0.0172577Z" fill="#113984"/>
<path fill-rule="evenodd" clip-rule="evenodd" d="M8.33545 17.1763L9.81479 8.06721C9.94461 7.26729 10.3944 6.88647 11.2881 6.88647H19.7504C21.1512 6.88647 22.2829 7.09922 23.17 7.49141C22.3197 13.0918 18.5966 16.2037 13.7208 16.2037H9.54306C8.99302 16.2037 8.58223 16.4771 8.33545 17.1763Z" fill="#172C70"/>
</svg>
