<svg width="30" height="24" viewBox="0 0 30 24" fill="none" xmlns="http://www.w3.org/2000/svg">
<path fill-rule="evenodd" clip-rule="evenodd" d="M30 21.0472V3.21062C30 1.8678 28.8802 0.778351 27.5 0.778351H2.5C1.11979 0.778351 0 1.8678 0 3.21062V21.0472C0 22.39 1.11979 23.4795 2.5 23.4795H27.5C28.8802 23.4795 30 22.39 30 21.0472ZM24.9688 13.1576C24.8802 12.7623 24.4844 10.8773 24.4844 10.8773L24.3385 10.1983C24.2852 10.3487 24.2114 10.547 24.1535 10.7026L24.1535 10.7026L24.1534 10.7028C24.0982 10.8512 24.0574 10.9607 24.0625 10.9533C24.0625 10.9533 23.401 12.7066 23.2292 13.1576H24.9688ZM7.94271 15.9395L11.2344 8.07515H9.02083L6.97396 13.4464L6.75 12.3569L6.02083 8.73895C5.90104 8.2373 5.53125 8.09542 5.07292 8.07515H1.70312L1.66667 8.23223C2.48958 8.43492 3.22396 8.72882 3.86458 9.09873L5.72917 15.9395H7.94271ZM14.1719 8.07515L12.8594 15.9496H10.7708L12.0781 8.07515H14.1719ZM20.1458 13.3755C20.1562 12.4786 19.5938 11.7945 18.3906 11.232C17.6562 10.8723 17.2083 10.629 17.2083 10.2591C17.2188 9.92469 17.5885 9.58011 18.4115 9.58011C19.0938 9.56491 19.5938 9.722 19.9688 9.87908L20.1562 9.96522L20.4427 8.26264C20.0312 8.10555 19.375 7.9282 18.5677 7.9282C16.5 7.9282 15.0469 9.00245 15.0365 10.5328C15.0208 11.6627 16.0781 12.2911 16.8698 12.6711C17.6771 13.0562 17.9531 13.3096 17.9531 13.6491C17.9427 14.1761 17.2969 14.4193 16.6979 14.4193C15.8646 14.4193 15.4167 14.2926 14.7344 13.9987L14.4583 13.8721L14.1667 15.6405C14.6562 15.8584 15.5625 16.051 16.5 16.0611C18.6979 16.0662 20.1302 15.0071 20.1458 13.3755ZM25.8125 8.07515L27.5 15.9496H25.5625C25.5625 15.9496 25.375 15.0476 25.3125 14.7689H22.625C22.5469 14.9767 22.1875 15.9496 22.1875 15.9496H19.9896L23.099 8.72882C23.3125 8.21703 23.6927 8.07515 24.1927 8.07515H25.8125Z" fill="black"/>
</svg>
